<?xml version="1.0" encoding="UTF-8"?>
<svg id="Layer_1" data-name="Layer 1" xmlns="http://www.w3.org/2000/svg" viewBox="0 0 4096 4096">
  <defs>
    <style>
      .cls-1 {
        fill: #0e2034;
      }

      .cls-2 {
        fill: #0e1f33;
      }

      .cls-3 {
        fill: #0e1f32;
      }

      .cls-4 {
        fill: #0d1e32;
      }

      .cls-5 {
        fill: #0f2034;
      }

      .cls-6 {
        fill: #0f2035;
      }

      .cls-7 {
        fill: #102135;
      }
    </style>
  </defs>
  <path class="cls-5" d="M1161.59,2271.17c51.53,14.61,104.4-4.23,138.89-42.47,24.19-26.81,41.44-56.07,54.21-89.7,5.72-1.33,10.84-1.18,15.68.42l-13.8,122.37c-46.92,24.2-96.66,34.39-148.56,36.71-44.66,2-87.09-3.57-127.94-20.54-63.61-26.42-110.76-77.79-130.25-143.98-33.85-114.93,3.56-243.64,112.61-299.57,88.39-45.33,196.29-35.96,287.83-.71l10.47,120.55c-3.32,3.07-9.64,2.62-13.19.42-15.09-36.1-34.08-68.95-63.23-94.9-49.65-44.18-125.9-46.3-174.64.03-68.08,64.73-71.68,188.45-52.59,276.84,12.44,57.64,44.86,117.59,104.52,134.51Z"/>
  <path class="cls-7" d="M2421.41,2291.76c-3.75,0-2.9-4.95-2.61-6.33.6-2.78,31.95-14.24,31.96-55.84l.1-354.01c0-19.05-11.88-35.72-27.09-42.87-3.52-1.65-4.81-2.2-5.76-4.06-.99-1.96-.86-6.12,1.75-6.9l126.61-38.06.29,449.06c.01,19.71,9.76,37.67,24.91,47.14l6.48,3.11c2.5,1.2,2.61,5.71,1.14,8.66l-157.79.09Z"/>
  <path class="cls-1" d="M1965.83,1959.23h108.33c1.58,2.77,1.27,6.21.43,9.56-24,6.47-43.52,34.6-53.67,58.42l-51.99,121.93-61.68,145.85c-8.05,1.44-15.03,1.26-22.95.47l-31.46-68.51-93.22-208.19c-8.39-18.74-18.9-35.45-35.73-46.62-4.71-3.12-9.61-5.02-5.88-13.11l167.92.23c2.37,1.31,2.1,9.46-.35,10.16-14.71,4.17-26.29,14.41-25.46,30.67.51,9.83,3.26,19.51,7.21,28.62l43.5,100.35,19.86,48,32.71-77.64,30.59-77.27c8.26-20.88-2.99-44.12-23.66-52.51-2.77-1.12-5.42-.87-6.41-2.91-.84-1.72-.57-7.5,1.9-7.5Z"/>
  <path class="cls-3" d="M2606.94,2291.13c-5.41-.01.47-8.77,3.74-10.67,16.46-9.54,25.56-28.95,25.59-48.62l.3-187.71c.06-34.55-27.63-44.37-30.97-49.39-1.23-1.86-1.19-6.62,1.61-7.44l124.2-36.32,1.04,280.42c.07,19.51,9.3,37.67,23.78,47.77l6.77,3.16c2.22,1.03,2.55,9.21.41,9.21l-156.49-.4Z"/>
  <circle class="cls-4" cx="2682.27" cy="1860.68" r="54.1"/>
  <path class="cls-5" d="M1742.07,2245.76c-8.02,7.38-18.47,12.02-29.41,6.71-6.53-3.16-14.64-12.38-14.71-22.97l-1.12-159.83c-.35-50.5-18.41-93.12-67.9-108.83-35.29-11.2-71.28-10.63-107.91-3.87-40.56,7.49-77.51,26.78-102.48,60.71l60.41,51.85c10.48-32.63,21.62-76.58,51.04-91.55,15.33-7.8,33.03-5.14,47.59,4.65,11.54,7.76,20.81,22.33,21.19,38.65l1.61,68.47c-50.64,13.13-127.53,33.59-163.78,64.74-20.66,17.75-30.17,43.08-27.45,70.04,2.56,25.4,15.53,47.24,39.31,60.16,37.91,20.58,83.02,17,118.55-5.54,13.81-8.76,24.67-18.76,37.2-30.37,6.27,27,24.84,43.93,51.13,48.03,37.02,5.78,74.14-11.47,94.01-42.92-.26-3.04-4.21-8.29-7.27-8.15ZM1579.24,2244.19c-20.56,13.24-46.98,11.13-62.56-6.82-10.85-12.5-13.5-29.09-12.36-45.31.75-23.66,12.76-42.96,32.81-55.13l63.45-28.23.55,114.22c-6.48,7.79-12.76,15.38-21.88,21.25Z"/>
  <path class="cls-6" d="M2405.01,2252.3c-1.12-2.09-4.47-6.79-7.43-4.95-10.03,6.23-22.86,9.49-32.81,1.55-6.95-5.54-10-15.92-10.01-25.2l-.19-155.56c-.02-16.23-2.32-31.19-6.42-46.32-17.19-63.42-91.18-74.85-152.2-67.93-46.68,5.29-88.41,25.82-118.01,62.3,1.93,5.95,6.53,9.2,10.99,12.87l49.57,40.85c10.8-37.71,20.24-74.95,53.85-93.75,29.62-9.91,57.73,9.77,63.09,40.61,4.19,24.1,3.42,48.08,2.86,73.17l-100.24,30.07c-18.07,5.42-33.85,14.51-49.73,24.1-26.01,15.72-40.66,41.27-40.62,72,.03,30.07,14.78,56.02,43.19,70.44,33,16.76,71.8,14.8,104.25-1.47,18.04-9.04,31.88-21.84,47.12-36.2,6.03,26.65,25,44.35,50.89,48,34.16,4.81,66.54-8.91,88.18-35.49,2.26-2.77,5.4-5.9,3.69-9.1ZM2215.11,2252.24c-23.19,2.32-42.19-9.36-49.22-30.1-12.12-35.76,2.9-72.88,36.4-89.88l56.32-22.58.39,112.35c-9.56,16.38-24.1,28.22-43.89,30.2Z"/>
  <path class="cls-2" d="M3156.74,2430.5c.18.21-30.27-11.64-30.31-47.19l-.54-432.29c-4-.38-9.47-1.36-12.26.75l-49.77,37.71c-47.83-37.71-110.8-48.83-167.52-26.87-100.37,38.87-128.46,173.48-80.17,267.09,29.52,57.23,97.06,81.8,156.82,61.59,25.42-8.6,42.34-24.96,58.42-48.38l-.62,140.93c-.14,32.84-30.22,45.77-31.67,48.04-.98,1.54-.99,7.85,1.25,7.85l156.79.24c1.68-2.99,1.27-7.56-.44-9.48ZM2975.09,2254.33c-23.96,1.16-43.15-9.38-55.79-27.88-24.34-35.64-27.49-79.02-26.69-122.54.84-45.53,11.64-103.67,52.83-124.19,37.78-18.83,85.54,18.99,85.57,48.69l.2,175.24c.04,30.38-24.3,49.13-56.13,50.68Z"/>
</svg>