<?xml version="1.0" encoding="UTF-8"?>
<svg xmlns="http://www.w3.org/2000/svg" viewBox="0 0 4096 4096">
  <defs>
    <style>
      .cls-1 {
        fill: #fff;
      }

      .cls-2 {
        fill: #cda45c;
      }
    </style>
  </defs>
  <g id="Layer_1" data-name="Layer 1">
    <g>
      <path class="cls-2" d="M2122.24,1351.51l-26.15,47.71c-239.32,133.99-438.24,379.57-365.7,665.56,34.43,135.72,121.28,247.83,228.92,336.98-73.8-233.03-71.56-448.6,62.81-654.66-4.3,107.75,33.05,210.62,130.52,255.81-5.11,13.38-4.46,26.54-4.56,39.55-72.2-29.43-126.72-88.81-149.01-166.06-71.44,165.67-56.16,343.61-3.06,510.25l19.01,59.67c100.3,73.6,209.18,130.84,326.61,174.96l-30.19,30.71c-137.06-52.96-264.8-125.35-378.36-219.84-78.83-65.59-145-142.77-193.03-232.83-86.67-162.52-85.6-355.09,4.57-515.58,77.9-138.65,198.52-244.82,337.23-323.19,1.48-.67-1.11-3.29-3.17-2.7,13.64-3.74,27.81-9.05,43.56-6.34Z"/>
      <path class="cls-1" d="M2686.97,1947.26l-97.66-164.94-.04-227.01c-56.04-23.35-109.85-42.31-166.15-59.42l-69.43-115.87c79.13,15.97,154.67,39.6,229.77,68.26l101.84,47.47,1.66,451.52Z"/>
      <path class="cls-1" d="M2658.55,2244.09c-10.47,11.62-25.05,17.79-40.4,19.66l-45.42,5.53c-13.06,43.26-26.22,83.83-47.63,123.59-42.83,79.54-97.69,149.36-163.11,211.2-20.47-126.38-77.99-238.73-153.38-339.47-48.51-65.44-61.13-143.52-60.52-222.14l-6.65-9.38c-67.98-29.65-111.9-87.05-138.04-154.75-4.31-7.76-6.71-5.59-12.12,2.23-13.74,19.85-26.21,73.95-31.92,99.79-21.49,97.11-17.72,196.94,1.35,294.1,1.96,9.97,41.95,169.59,50.01,175.66,100.81,75.95,204.85,126.46,320.99,172.71,1.47.59-20.64,22.73-22.21,22.59-276.53-111.22-592.47-327.26-624.82-647.56-27.83-275.52,165.61-497.65,392.41-627.68,11.61-8.25,13.67-13.65,1.61-12.32-154.46,42.4-297,115.33-407.5,234.72-40.2,44.32-75.08,89.3-105.42,140.69-26.36,40.7-43.75,83.69-62.45,128.49v-306.7c70.23-28.61,138.47-52.48,212.2-68.44,69.56-57.79,146.82-100.41,230.59-137.17-81.93,1.59-156.56,17.54-234.28,35.04-106.48,24.73-208.9,60.57-306,111.41v599.24c-.15,73.33,6.31,142.13,24.38,212.84,26.63,90.67,69.47,172.86,127.67,247.05,42.32,53.94,86.88,101.43,138.24,147.21,75.19,67.02,154.82,126.88,241.96,177.41l108.18,62.72,95.4-54.6c112.13-64.18,214.39-142.32,306.37-232.52l37.7-41.28c105.44-115.44,183.07-253,196.58-413.29l-23.74,43.39ZM1807.12,2668.98c-77.01-61.34-143.06-131.05-199.26-211.44l-44.25-76.48c-24.69-42.67-40.1-88.64-47.83-137.89-1.75-66.76.4-130.89,12.92-198.51,9.47,136.9,63.38,264.04,156.03,365.76,51.13,56.14,106.3,105.01,165.75,151.92l56.3,48.94c34.64,30.12,63.99,64.09,89.73,102.11,22.21,34.71,40.01,70.29,43.95,115.38-82.02-49.11-159.1-100.65-233.34-159.79Z"/>
      <path class="cls-1" d="M2152.63,2002.91c-2.07.69-4.15,1.26-6.26,1.44-1.98.17-3.84.24-5.33-.45-84.74-39.03-125.08-143.45-125.17-231.92-122.94,183.97-118.7,415.48-53.94,621.45.96,4.97,1.3,9.16-.54,10.63-9.43,7.53-79.4-65.51-90.72-77.86-110.76-120.87-178-273.22-157.87-438.8,26.24-215.92,196.59-390.33,379.41-492.52l21.86-40.93,8.17-2.43c39.79-59.56,87.49-110.18,146.28-151.2,24.6-17.16,45.98-34.93,75.66-46.7l-17.42,107.87-18.47,134.58,141.22,240.77,237.17,406.87c5.37,9.21,3.92,15.76.1,24.58l-62.16,143.76-154.4,23.18c-15.64-21.23-29.21-41.71-38.52-64.96-6.36-29.89-22.13-53.29-47.27-69.83l-113.88-74.92c-41.28-1.19-80.91-5.44-117.93-22.6Z"/>
      <path class="cls-2" d="M2559.89,2003.72l-188.77-246.37c-8.99-11.73-19.98-17.28-34.38-20.05-26.16-5.03-46.07-23.16-48.75-50.28-2.4-24.27-12.31-43.52-27.21-65.54l84.68,46.85c19.95,11.04,30.11,26.55,41.89,45.83l174.85,286.22c-.49,2.1.54,3.18,1.49,3.58,2.51,1.05,5.97,4.7,3.76,8.37-1.48.59-5.09-2.96-4.82-5.94.17-1.84-1.32-3.12-2.75-2.65Z"/>
    </g>
  </g>
</svg>