<?xml version="1.0" encoding="UTF-8"?>
<svg id="Layer_1" data-name="Layer 1" xmlns="http://www.w3.org/2000/svg" viewBox="0 0 4096 4096">
  <defs>
    <style>
      .cls-1 {
        fill: #0d1f34;
      }

      .cls-2 {
        fill: #0e2034;
      }

      .cls-3 {
        fill: #0e1f33;
      }

      .cls-4 {
        fill: #0e1f32;
      }

      .cls-5 {
        fill: #0d1e32;
      }

      .cls-6 {
        fill: #0f2034;
      }

      .cls-7 {
        fill: #cda45c;
      }

      .cls-8 {
        fill: #0f2035;
      }

      .cls-9 {
        fill: #102135;
      }

      .cls-10 {
        fill: #cda35b;
      }
    </style>
  </defs>
  <path class="cls-10" d="M888.67,1585.15l-17.43,31.8c-159.55,89.32-292.16,253.05-243.8,443.7,22.95,90.48,80.85,165.22,152.61,224.65-49.2-155.35-47.7-299.06,41.87-436.44-2.87,71.83,22.03,140.41,87.01,170.54-3.41,8.92-2.97,17.7-3.04,26.36-48.13-19.62-84.48-59.21-99.34-110.71-47.63,110.45-37.44,229.08-2.04,340.17l12.67,39.78c66.87,49.06,139.46,87.23,217.74,116.64l-20.13,20.47c-91.37-35.31-176.53-83.57-252.24-146.56-52.55-43.73-96.67-95.18-128.68-155.22-57.78-108.35-57.07-236.72,3.04-343.72,51.94-92.44,132.34-163.21,224.82-215.46.99-.44-.74-2.19-2.11-1.8,9.09-2.5,18.54-6.03,29.04-4.23Z"/>
  <path class="cls-5" d="M1265.11,1982.31l-65.11-109.96-.03-151.34c-37.36-15.56-73.24-28.21-110.76-39.62l-46.29-77.24c52.76,10.65,103.11,26.4,153.18,45.5l67.9,31.64,1.11,301.01Z"/>
  <path class="cls-1" d="M1246.21,2180.19c-6.98,7.75-16.7,11.86-26.94,13.11l-30.28,3.69c-8.7,28.84-17.48,55.89-31.76,82.4-28.56,53.02-65.13,99.57-108.74,140.8-13.64-84.25-51.99-159.15-102.25-226.31-32.34-43.63-40.75-95.68-40.35-148.1l-4.43-6.26c-45.32-19.77-74.6-58.03-92.03-103.16-2.87-5.17-4.47-3.73-8.08,1.49-9.16,13.23-17.47,49.3-21.28,66.53-14.33,64.74-11.81,131.29.9,196.07,1.3,6.65,27.97,113.06,33.34,117.11,67.2,50.63,136.57,84.31,214,115.14.98.39-13.76,15.16-14.81,15.06-184.35-74.15-394.98-218.17-416.55-431.7-18.56-183.68,110.41-331.77,261.61-418.45,7.74-5.5,9.11-9.1,1.07-8.21-102.97,28.27-198,76.89-271.66,156.48-26.8,29.55-50.05,59.53-70.28,93.79-17.57,27.14-29.17,55.79-41.68,85.66v-204.46c46.87-19.07,92.36-34.98,141.51-45.63,46.37-38.53,97.88-66.94,153.72-91.45-54.62,1.06-104.37,11.69-156.19,23.36-70.99,16.49-139.27,40.38-204.05,74.28v399.5c-.05,48.89,4.26,94.75,16.3,141.89,17.75,60.45,46.31,115.24,85.11,164.7,28.21,35.96,57.92,67.62,92.16,98.14,50.12,44.68,103.21,84.59,161.31,118.27l72.12,41.82,63.6-36.4c74.75-42.78,142.93-94.88,204.24-155.02l25.14-27.52c70.29-76.96,122.04-168.67,131.06-275.53l-15.83,28.93ZM678.59,2463.46c-51.34-40.89-95.38-87.37-132.84-140.96l-29.5-50.99c-16.46-28.45-26.73-59.1-31.89-91.93-1.17-44.51.27-87.26,8.61-132.34,6.31,91.27,42.25,176.03,104.02,243.84,34.09,37.42,70.86,70.01,110.5,101.28l37.53,32.63c23.09,20.08,42.66,42.73,59.82,68.07,14.81,23.14,26.67,46.86,29.3,76.92-54.68-32.74-106.06-67.1-155.56-106.53Z"/>
  <path class="cls-1" d="M908.93,2019.41c-1.38.46-2.76.84-4.17.96-1.32.11-2.56.16-3.55-.3-56.49-26.02-83.39-95.64-83.45-154.62-81.96,122.65-79.13,276.99-35.96,414.3.64,3.31.87,6.1-.36,7.08-6.28,5.02-52.93-43.68-60.48-51.91-73.84-80.58-118.66-182.15-105.25-292.53,17.5-143.95,131.06-260.22,252.94-328.35l14.57-27.29,5.45-1.62c26.53-39.7,58.32-73.45,97.52-100.8,16.4-11.44,30.66-23.29,50.44-31.13l-11.61,71.91-12.31,89.72,94.15,160.51,158.12,271.25c3.58,6.14,2.61,10.51.07,16.39l-41.44,95.84-102.93,15.45c-10.43-14.15-19.48-27.81-25.68-43.31-4.24-19.93-14.75-35.53-31.51-46.56l-75.92-49.95c-27.52-.79-53.94-3.62-78.62-15.07Z"/>
  <path class="cls-7" d="M1180.43,2019.95l-125.84-164.24c-5.99-7.82-13.32-11.52-22.92-13.37-17.44-3.35-30.71-15.44-32.5-33.52-1.6-16.18-8.21-29.01-18.14-43.69l56.45,31.24c13.3,7.36,20.07,17.7,27.92,30.55l116.57,190.81c-.33,1.4.36,2.12.99,2.38,1.68.7,3.98,3.13,2.51,5.58-.99.39-3.4-1.97-3.21-3.96.11-1.23-.88-2.08-1.83-1.77Z"/>
  <path class="cls-6" d="M1691.64,2271.17c51.53,14.61,104.4-4.23,138.89-42.47,24.19-26.81,41.44-56.07,54.21-89.7,5.72-1.33,10.84-1.18,15.68.42l-13.8,122.37c-46.92,24.2-96.66,34.39-148.56,36.71-44.66,2-87.09-3.57-127.94-20.54-63.61-26.42-110.76-77.79-130.25-143.98-33.85-114.93,3.56-243.64,112.61-299.57,88.39-45.33,196.29-35.96,287.83-.71l10.47,120.55c-3.32,3.07-9.64,2.62-13.19.42-15.09-36.1-34.08-68.95-63.23-94.9-49.65-44.18-125.9-46.3-174.64.03-68.08,64.73-71.68,188.45-52.59,276.84,12.44,57.64,44.86,117.59,104.52,134.51Z"/>
  <path class="cls-9" d="M2951.53,2292.09c-3.77,0-2.91-4.95-2.62-6.33.61-2.78,32.07-14.24,32.09-55.84l.1-354.01c0-19.05-11.93-35.72-27.2-42.87-3.53-1.65-4.83-2.2-5.78-4.06-1-1.96-.86-6.12,1.76-6.9l127.11-38.06.29,449.06c.01,19.71,9.8,37.67,25.01,47.14l6.51,3.11c2.51,1.2,2.62,5.71,1.14,8.66l-158.42.09Z"/>
  <path class="cls-2" d="M2495.88,1959h108.33c1.58,3,1.27,6.44.43,9.79-24,6.47-43.52,34.6-53.67,58.42l-51.99,121.93-61.68,145.85c-8.05,1.44-15.03,1.26-22.95.47l-31.46-68.51-93.22-208.19c-8.39-18.74-18.9-35.45-35.73-46.62-4.71-3.12-9.61-5.02-5.88-12.13h167.92c2.37.56,2.1,8.72-.35,9.41-14.71,4.17-26.29,14.41-25.46,30.67.51,9.83,3.26,19.51,7.21,28.62l43.5,100.35,19.86,48,32.71-77.64,30.59-77.27c8.26-20.88-2.99-44.12-23.66-52.51-2.77-1.12-5.42-.87-6.41-2.91-.84-1.72-.57-7.5,1.9-7.73Z"/>
  <path class="cls-4" d="M3136.72,2291.6c-5.4-.01.47-8.77,3.73-10.67,16.43-9.54,25.52-28.95,25.55-48.62l.3-187.71c.06-34.55-27.59-44.37-30.92-49.39-1.23-1.86-1.19-6.62,1.61-7.44l124.01-36.32,1.04,280.42c.07,19.51,9.28,37.67,23.75,47.77l6.76,3.16c2.21,1.03,2.55,9.21.41,9.21l-156.24-.4Z"/>
  <circle class="cls-5" cx="3212.32" cy="1860.68" r="54.1"/>
  <path class="cls-6" d="M2272.24,2245.76c-8.02,7.38-18.47,12.02-29.41,6.71-6.53-3.16-14.64-12.38-14.71-22.97l-1.12-159.83c-.35-50.5-18.41-93.12-67.9-108.83-35.29-11.2-71.28-10.63-107.91-3.87-40.56,7.49-77.51,26.78-102.48,60.71l60.41,51.85c10.48-32.63,21.62-76.58,51.04-91.55,15.33-7.8,33.03-5.14,47.59,4.65,11.54,7.76,20.81,22.33,21.19,38.65l1.61,68.47c-50.64,13.13-127.53,33.59-163.78,64.74-20.66,17.75-30.17,43.08-27.45,70.04,2.56,25.4,15.53,47.24,39.31,60.16,37.91,20.58,83.02,17,118.55-5.54,13.81-8.76,24.67-18.76,37.2-30.37,6.27,27,24.84,43.93,51.13,48.04,37.02,5.78,74.14-11.47,94.01-42.92-.26-3.04-4.21-8.29-7.27-8.15ZM2109.66,2244.19c-20.56,13.24-46.98,11.13-62.56-6.82-10.85-12.5-13.5-29.09-12.36-45.31.75-23.66,12.76-42.96,32.81-55.13l63.45-28.23.55,114.22c-6.48,7.79-12.76,15.38-21.88,21.25Z"/>
  <path class="cls-8" d="M2935.44,2252.3c-1.12-2.09-4.47-6.79-7.43-4.95-10.03,6.23-22.86,9.49-32.81,1.55-6.95-5.54-10-15.92-10.01-25.2l-.19-155.56c-.02-16.23-2.32-31.19-6.42-46.32-17.19-63.42-91.18-74.85-152.2-67.93-46.68,5.29-88.41,25.82-118.01,62.3,1.93,5.95,6.53,9.2,10.99,12.87l49.57,40.85c10.8-37.71,20.24-74.95,53.85-93.75,29.62-9.91,57.73,9.77,63.09,40.61,4.19,24.1,3.42,48.08,2.86,73.17l-100.24,30.07c-18.07,5.42-33.85,14.51-49.73,24.1-26.01,15.72-40.66,41.26-40.62,72,.03,30.07,14.78,56.02,43.19,70.44,33,16.76,71.8,14.8,104.25-1.47,18.04-9.04,31.88-21.84,47.12-36.2,6.03,26.65,25,44.35,50.89,48,34.16,4.82,66.54-8.91,88.18-35.49,2.26-2.77,5.4-5.9,3.69-9.1ZM2745.5,2252.24c-23.19,2.32-42.19-9.36-49.22-30.1-12.12-35.76,2.9-72.88,36.4-89.88l56.32-22.58.39,112.35c-9.56,16.38-24.1,28.22-43.89,30.2Z"/>
  <path class="cls-3" d="M3686.82,2430.52c.18.21-30.24-11.64-30.28-47.19l-.54-432.29c-4-.38-9.46-1.36-12.25.75l-49.72,37.71c-47.79-37.71-110.7-48.83-167.37-26.87-100.28,38.87-128.34,173.48-80.1,267.09,29.5,57.23,96.98,81.8,156.68,61.59,25.4-8.6,42.3-24.96,58.37-48.38l-.62,140.93c-.14,32.84-30.19,45.77-31.64,48.04-.98,1.54-.99,7.85,1.25,7.85l156.65.24c1.68-2.99,1.26-7.56-.44-9.48ZM3505.07,2254.33c-23.96,1.16-43.15-9.38-55.79-27.88-24.34-35.64-27.49-79.02-26.69-122.54.84-45.53,11.64-103.67,52.83-124.19,37.78-18.83,85.54,18.99,85.57,48.69l.2,175.24c.04,30.38-24.3,49.13-56.13,50.68Z"/>
</svg>